<svg xmlns="http://www.w3.org/2000/svg" viewBox="0 0 1600 900" role="img" aria-labelledby="title desc">
  <title id="title">Interesa OG image</title>
  <desc id="desc">Pastelový brandový obrázok pre sociálne náhľady Interesa.</desc>
  <defs>
    <linearGradient id="bg" x1="0" y1="0" x2="1" y2="1">
      <stop offset="0%" stop-color="#ecf8f2" />
      <stop offset="100%" stop-color="#d8eee4" />
    </linearGradient>
  </defs>
  <rect width="1600" height="900" fill="url(#bg)" />
  <circle cx="1180" cy="188" r="108" fill="#cfe8dc" />
  <g>
    <rect x="214" y="156" width="500" height="500" rx="250" fill="#f9fcfb" stroke="#d4eadf" stroke-width="8" />
    <path d="M360 420c44-102 138-166 262-184-23 125-89 222-204 296-47-14-69-46-58-112z" fill="#5ca07b" />
    <path d="M502 520c-81-18-140-70-174-154 80-5 147 22 207 79-2 41-13 67-33 75z" fill="#79b997" />
  </g>
  <g fill="#0f172a">
    <rect x="790" y="286" width="356" height="44" rx="22" opacity="0.92" />
    <rect x="790" y="356" width="462" height="30" rx="15" opacity="0.16" />
    <rect x="790" y="406" width="436" height="30" rx="15" opacity="0.16" />
    <rect x="790" y="456" width="320" height="30" rx="15" opacity="0.16" />
  </g>
  <text x="790" y="296" font-family="Segoe UI, Arial, sans-serif" font-size="36" font-weight="800" fill="#ffffff">Interesa</text>
  <text x="790" y="550" font-family="Segoe UI, Arial, sans-serif" font-size="38" font-weight="700" fill="#0f172a">Zdravá výživa, porovnania a výber</text>
  <text x="790" y="604" font-family="Segoe UI, Arial, sans-serif" font-size="24" fill="#35574b">Obsahový affiliate web pre dôveryhodné odporúčania.</text>
</svg>