<svg xmlns="http://www.w3.org/2000/svg" xmlns:xlink="http://www.w3.org/1999/xlink" width="1600" zoomAndPan="magnify" viewBox="0 0 1200 299.999988" height="400" preserveAspectRatio="xMidYMid meet" version="1.0"><defs><g/><clipPath id="83008a356b"><path d="M 176 124 L 233 124 L 233 211 L 176 211 Z M 176 124 " clip-rule="nonzero"/></clipPath><clipPath id="5331778acd"><path d="M 199.953125 115.289062 L 249.324219 133.140625 L 218.640625 218 L 169.269531 200.144531 Z M 199.953125 115.289062 " clip-rule="nonzero"/></clipPath><clipPath id="df450f9575"><path d="M 227.546875 193.367188 C 222.632812 206.957031 207.597656 213.972656 193.964844 209.042969 C 180.332031 204.113281 173.261719 189.101562 178.175781 175.515625 C 192.054688 137.132812 224.570312 124.40625 224.570312 124.40625 C 224.570312 124.40625 241.070312 155.96875 227.546875 193.367188 Z M 227.546875 193.367188 " clip-rule="nonzero"/></clipPath><clipPath id="6e10712774"><path d="M 0 0.320312 L 57 0.320312 L 57 87 L 0 87 Z M 0 0.320312 " clip-rule="nonzero"/></clipPath><clipPath id="1800bb2656"><path d="M 23.953125 -8.710938 L 73.324219 9.140625 L 42.640625 94 L -6.730469 76.144531 Z M 23.953125 -8.710938 " clip-rule="nonzero"/></clipPath><clipPath id="2f2bf052b9"><path d="M 51.546875 69.367188 C 46.632812 82.957031 31.597656 89.972656 17.964844 85.042969 C 4.332031 80.113281 -2.738281 65.101562 2.175781 51.515625 C 16.054688 13.132812 48.570312 0.40625 48.570312 0.40625 C 48.570312 0.40625 65.070312 31.96875 51.546875 69.367188 Z M 51.546875 69.367188 " clip-rule="nonzero"/></clipPath><clipPath id="49e9a236b5"><rect x="0" width="57" y="0" height="87"/></clipPath><clipPath id="d79ef4c853"><path d="M 158 126 L 218 126 L 218 210 L 158 210 Z M 158 126 " clip-rule="nonzero"/></clipPath><clipPath id="f3829184e2"><path d="M 140.007812 137.015625 L 187.503906 114.644531 L 225.953125 196.277344 L 178.457031 218.648438 Z M 140.007812 137.015625 " clip-rule="nonzero"/></clipPath><clipPath id="d757311ed4"><path d="M 214.792969 172.582031 C 220.949219 185.65625 215.308594 201.257812 202.191406 207.4375 C 189.074219 213.613281 173.453125 208.023438 167.296875 194.953125 C 149.90625 158.03125 163.84375 126.015625 163.84375 126.015625 C 163.84375 126.015625 197.847656 136.605469 214.792969 172.582031 Z M 214.792969 172.582031 " clip-rule="nonzero"/></clipPath><clipPath id="f91427f1f3"><path d="M 0 0 L 60 0 L 60 84 L 0 84 Z M 0 0 " clip-rule="nonzero"/></clipPath><clipPath id="93edd7dba7"><path d="M -17.992188 11.015625 L 29.503906 -11.355469 L 67.953125 70.277344 L 20.457031 92.648438 Z M -17.992188 11.015625 " clip-rule="nonzero"/></clipPath><clipPath id="75f3e515be"><path d="M 56.792969 46.582031 C 62.949219 59.65625 57.308594 75.257812 44.191406 81.4375 C 31.074219 87.613281 15.453125 82.023438 9.296875 68.953125 C -8.09375 32.03125 5.84375 0.015625 5.84375 0.015625 C 5.84375 0.015625 39.847656 10.605469 56.792969 46.582031 Z M 56.792969 46.582031 " clip-rule="nonzero"/></clipPath><clipPath id="55165c93ad"><rect x="0" width="60" y="0" height="84"/></clipPath></defs><g fill="#10202d" fill-opacity="1"><g transform="translate(239.780409, 204.374983)"><g><path d="M 21.453125 -91.34375 C 19.347656 -91.34375 17.492188 -92.21875 15.890625 -93.96875 C 14.296875 -95.71875 13.5 -97.789062 13.5 -100.1875 C 13.5 -102.59375 14.320312 -104.691406 15.96875 -106.484375 C 17.625 -108.285156 19.5 -109.1875 21.59375 -109.1875 C 23.894531 -109.1875 25.820312 -108.3125 27.375 -106.5625 C 28.925781 -104.8125 29.703125 -102.6875 29.703125 -100.1875 C 29.703125 -97.789062 28.875 -95.71875 27.21875 -93.96875 C 25.570312 -92.21875 23.648438 -91.34375 21.453125 -91.34375 Z M 6.59375 -4.5 C 9.5 -4.5 11.578125 -5.222656 12.828125 -6.671875 C 14.078125 -8.117188 14.828125 -9.96875 15.078125 -12.21875 C 15.328125 -14.46875 15.453125 -17.992188 15.453125 -22.796875 L 15.453125 -57 C 15.453125 -59.894531 15.648438 -63.144531 16.046875 -66.75 L 5.40625 -66.140625 L 5.40625 -72.4375 C 11.300781 -72.4375 15.519531 -72.785156 18.0625 -73.484375 C 20.613281 -74.191406 22.59375 -75.191406 24 -76.484375 L 28.34375 -76.484375 L 28.34375 -15.890625 C 28.34375 -11.398438 28.144531 -8.003906 27.75 -5.703125 L 37.203125 -6.15625 L 37.203125 0 L 6.59375 0 Z M 6.59375 -4.5 "/></g></g></g><g fill="#10202d" fill-opacity="1"><g transform="translate(281.923834, 204.374983)"><g><path d="M 6.59375 -4.5 C 9.5 -4.5 11.578125 -5.222656 12.828125 -6.671875 C 14.078125 -8.117188 14.800781 -9.914062 15 -12.0625 C 15.195312 -14.21875 15.347656 -17.796875 15.453125 -22.796875 L 15.59375 -57 C 15.59375 -61.195312 15.796875 -64.445312 16.203125 -66.75 L 5.546875 -66.140625 L 5.546875 -72.4375 C 11.453125 -72.4375 15.503906 -72.757812 17.703125 -73.40625 C 19.898438 -74.0625 21.75 -75.085938 23.25 -76.484375 L 27.59375 -76.484375 C 27.789062 -74.585938 27.992188 -71.539062 28.203125 -67.34375 C 31.597656 -70.34375 35.46875 -72.765625 39.8125 -74.609375 C 44.164062 -76.460938 48.441406 -77.390625 52.640625 -77.390625 C 61.335938 -77.390625 67.6875 -74.664062 71.6875 -69.21875 C 75.6875 -63.769531 77.6875 -55.296875 77.6875 -43.796875 L 77.6875 -15.890625 C 77.6875 -11.398438 77.488281 -8.003906 77.09375 -5.703125 L 86.546875 -6.15625 L 86.546875 0 L 55.9375 0 L 55.9375 -4.5 C 58.84375 -4.5 60.921875 -5.222656 62.171875 -6.671875 C 63.421875 -8.117188 64.171875 -9.96875 64.421875 -12.21875 C 64.671875 -14.46875 64.796875 -17.992188 64.796875 -22.796875 L 64.796875 -43.796875 C 64.691406 -52.390625 63.289062 -58.863281 60.59375 -63.21875 C 57.894531 -67.570312 53.644531 -69.75 47.84375 -69.75 C 44.25 -69.75 40.675781 -68.847656 37.125 -67.046875 C 33.570312 -65.242188 30.644531 -62.894531 28.34375 -60 C 28.445312 -58.894531 28.5 -56.941406 28.5 -54.140625 L 28.34375 -15.890625 C 28.34375 -11.398438 28.144531 -8.003906 27.75 -5.703125 L 37.203125 -6.15625 L 37.203125 0 L 6.59375 0 Z M 6.59375 -4.5 "/></g></g></g><g fill="#10202d" fill-opacity="1"><g transform="translate(371.609836, 204.374983)"><g><path d="M 34.796875 2.40625 C 21.097656 2.40625 14.300781 -6.796875 14.40625 -25.203125 L 14.703125 -68.6875 L 3.15625 -68.546875 L 3.15625 -74.984375 C 7.945312 -75.085938 12.015625 -77.265625 15.359375 -81.515625 C 18.710938 -85.765625 21.191406 -90.585938 22.796875 -95.984375 L 27.890625 -95.984375 L 27.890625 -74.984375 L 53.09375 -74.984375 L 53.09375 -69.140625 L 27.890625 -68.84375 C 27.796875 -53.539062 27.722656 -42.941406 27.671875 -37.046875 C 27.617188 -31.148438 27.59375 -27.847656 27.59375 -27.140625 C 27.59375 -20.046875 28.441406 -14.773438 30.140625 -11.328125 C 31.847656 -7.878906 34.800781 -6.15625 39 -6.15625 C 41.59375 -6.15625 44.164062 -6.953125 46.71875 -8.546875 C 49.269531 -10.148438 51.492188 -12.347656 53.390625 -15.140625 L 57.4375 -11.84375 C 53.539062 -6.050781 49.691406 -2.226562 45.890625 -0.375 C 42.097656 1.476562 38.398438 2.40625 34.796875 2.40625 Z M 34.796875 2.40625 "/></g></g></g><g fill="#10202d" fill-opacity="1"><g transform="translate(429.650774, 204.374983)"><g><path d="M 42.890625 2.40625 C 35.992188 2.40625 29.769531 0.78125 24.21875 -2.46875 C 18.664062 -5.71875 14.289062 -10.367188 11.09375 -16.421875 C 7.894531 -22.472656 6.296875 -29.445312 6.296875 -37.34375 C 6.296875 -44.34375 7.894531 -50.914062 11.09375 -57.0625 C 14.289062 -63.21875 18.765625 -68.144531 24.515625 -71.84375 C 30.265625 -75.539062 36.789062 -77.390625 44.09375 -77.390625 C 49.789062 -77.390625 54.9375 -76.140625 59.53125 -73.640625 C 64.132812 -71.140625 67.785156 -67.414062 70.484375 -62.46875 C 73.191406 -57.519531 74.546875 -51.445312 74.546875 -44.25 L 21.75 -43.34375 C 21.644531 -31.34375 23.617188 -21.992188 27.671875 -15.296875 C 31.722656 -8.597656 38 -5.25 46.5 -5.25 C 51.09375 -5.25 55.8125 -6.445312 60.65625 -8.84375 C 65.507812 -11.25 69.238281 -14.203125 71.84375 -17.703125 L 75.4375 -14.703125 C 71.644531 -8.898438 66.722656 -4.597656 60.671875 -1.796875 C 54.617188 1.003906 48.691406 2.40625 42.890625 2.40625 Z M 60.4375 -49.640625 C 60.4375 -55.640625 59.085938 -60.789062 56.390625 -65.09375 C 53.691406 -69.394531 49.644531 -71.546875 44.25 -71.546875 C 31.84375 -71.546875 24.492188 -64.242188 22.203125 -49.640625 Z M 60.4375 -49.640625 "/></g></g></g><g fill="#10202d" fill-opacity="1"><g transform="translate(510.938094, 204.374983)"><g><path d="M 6.59375 -4.5 C 9.5 -4.5 11.578125 -5.222656 12.828125 -6.671875 C 14.078125 -8.117188 14.828125 -9.96875 15.078125 -12.21875 C 15.328125 -14.46875 15.453125 -17.992188 15.453125 -22.796875 L 15.453125 -57 C 15.453125 -61.195312 15.648438 -64.445312 16.046875 -66.75 L 5.40625 -66.296875 L 5.40625 -72.4375 L 10.046875 -72.4375 C 13.847656 -72.4375 16.597656 -72.757812 18.296875 -73.40625 C 19.992188 -74.0625 21.59375 -75.085938 23.09375 -76.484375 L 27.453125 -76.484375 C 27.847656 -72.585938 28.097656 -67.640625 28.203125 -61.640625 C 30.703125 -65.742188 34.273438 -69.394531 38.921875 -72.59375 C 43.566406 -75.789062 48.390625 -77.390625 53.390625 -77.390625 C 56.390625 -77.390625 58.890625 -76.585938 60.890625 -74.984375 C 62.890625 -73.390625 63.890625 -71.039062 63.890625 -67.9375 C 63.890625 -66.34375 63.265625 -64.742188 62.015625 -63.140625 C 60.765625 -61.546875 58.988281 -60.75 56.6875 -60.75 C 54.488281 -60.75 52.6875 -61.570312 51.28125 -63.21875 C 49.882812 -64.863281 49.335938 -66.835938 49.640625 -69.140625 C 45.847656 -69.242188 42.023438 -67.796875 38.171875 -64.796875 C 34.316406 -61.796875 31.039062 -57.796875 28.34375 -52.796875 L 28.5 -15.890625 C 28.5 -11.398438 28.296875 -8.003906 27.890625 -5.703125 L 37.34375 -6.15625 L 37.34375 0 L 6.59375 0 Z M 6.59375 -4.5 "/></g></g></g><g fill="#10202d" fill-opacity="1"><g transform="translate(574.828119, 204.374983)"><g><path d="M 42.890625 2.40625 C 35.992188 2.40625 29.769531 0.78125 24.21875 -2.46875 C 18.664062 -5.71875 14.289062 -10.367188 11.09375 -16.421875 C 7.894531 -22.472656 6.296875 -29.445312 6.296875 -37.34375 C 6.296875 -44.34375 7.894531 -50.914062 11.09375 -57.0625 C 14.289062 -63.21875 18.765625 -68.144531 24.515625 -71.84375 C 30.265625 -75.539062 36.789062 -77.390625 44.09375 -77.390625 C 49.789062 -77.390625 54.9375 -76.140625 59.53125 -73.640625 C 64.132812 -71.140625 67.785156 -67.414062 70.484375 -62.46875 C 73.191406 -57.519531 74.546875 -51.445312 74.546875 -44.25 L 21.75 -43.34375 C 21.644531 -31.34375 23.617188 -21.992188 27.671875 -15.296875 C 31.722656 -8.597656 38 -5.25 46.5 -5.25 C 51.09375 -5.25 55.8125 -6.445312 60.65625 -8.84375 C 65.507812 -11.25 69.238281 -14.203125 71.84375 -17.703125 L 75.4375 -14.703125 C 71.644531 -8.898438 66.722656 -4.597656 60.671875 -1.796875 C 54.617188 1.003906 48.691406 2.40625 42.890625 2.40625 Z M 60.4375 -49.640625 C 60.4375 -55.640625 59.085938 -60.789062 56.390625 -65.09375 C 53.691406 -69.394531 49.644531 -71.546875 44.25 -71.546875 C 31.84375 -71.546875 24.492188 -64.242188 22.203125 -49.640625 Z M 60.4375 -49.640625 "/></g></g></g><g fill="#10202d" fill-opacity="1"><g transform="translate(656.115427, 204.374983)"><g><path d="M 37.34375 2.40625 C 32.644531 2.40625 28.34375 1.78125 24.4375 0.53125 C 20.539062 -0.71875 17.195312 -2.296875 14.40625 -4.203125 L 15 1.046875 L 8.703125 1.046875 L 7.796875 -24.75 L 12.453125 -24.75 C 12.648438 -20.644531 13.769531 -16.992188 15.8125 -13.796875 C 17.863281 -10.597656 20.566406 -8.070312 23.921875 -6.21875 C 27.273438 -4.375 30.847656 -3.453125 34.640625 -3.453125 C 38.941406 -3.453125 42.765625 -4.472656 46.109375 -6.515625 C 49.460938 -8.566406 51.140625 -11.492188 51.140625 -15.296875 C 51.140625 -18.097656 50.3125 -20.445312 48.65625 -22.34375 C 47.007812 -24.25 44.960938 -25.828125 42.515625 -27.078125 C 40.066406 -28.328125 36.644531 -29.800781 32.25 -31.5 C 26.945312 -33.5 22.695312 -35.375 19.5 -37.125 C 16.300781 -38.875 13.550781 -41.25 11.25 -44.25 C 8.945312 -47.25 7.796875 -51.046875 7.796875 -55.640625 C 7.796875 -58.941406 8.59375 -62.242188 10.1875 -65.546875 C 11.789062 -68.847656 14.492188 -71.644531 18.296875 -73.9375 C 22.097656 -76.238281 27.148438 -77.390625 33.453125 -77.390625 C 36.546875 -77.390625 39.71875 -76.890625 42.96875 -75.890625 C 46.21875 -74.890625 49.242188 -73.238281 52.046875 -70.9375 L 51.75 -76.640625 L 58.046875 -76.640625 L 58.046875 -50.390625 L 53.25 -50.390625 C 52.945312 -56.191406 51.171875 -61.21875 47.921875 -65.46875 C 44.671875 -69.71875 40.097656 -71.84375 34.203125 -71.84375 C 29.703125 -71.84375 26.125 -70.71875 23.46875 -68.46875 C 20.820312 -66.21875 19.5 -63.539062 19.5 -60.4375 C 19.5 -57.539062 20.375 -55.09375 22.125 -53.09375 C 23.875 -51.09375 26.046875 -49.390625 28.640625 -47.984375 C 31.242188 -46.585938 34.742188 -45.039062 39.140625 -43.34375 C 44.335938 -41.25 48.535156 -39.300781 51.734375 -37.5 C 54.941406 -35.695312 57.671875 -33.320312 59.921875 -30.375 C 62.171875 -27.425781 63.296875 -23.847656 63.296875 -19.640625 C 63.296875 -14.847656 62.066406 -10.800781 59.609375 -7.5 C 57.160156 -4.195312 53.960938 -1.71875 50.015625 -0.0625 C 46.066406 1.582031 41.84375 2.40625 37.34375 2.40625 Z M 37.34375 2.40625 "/></g></g></g><g fill="#10202d" fill-opacity="1"><g transform="translate(725.5546, 204.374983)"><g><path d="M 27.59375 2.40625 C 20.289062 2.40625 14.710938 0.753906 10.859375 -2.546875 C 7.015625 -5.847656 5.09375 -10.148438 5.09375 -15.453125 C 5.09375 -21.242188 7.414062 -26.140625 12.0625 -30.140625 C 16.71875 -34.140625 22.570312 -37.113281 29.625 -39.0625 C 36.675781 -41.019531 43.75 -41.945312 50.84375 -41.84375 L 50.84375 -51.140625 C 50.84375 -57.640625 49.890625 -62.710938 47.984375 -66.359375 C 46.085938 -70.015625 42.039062 -71.84375 35.84375 -71.84375 C 32.75 -71.84375 29.800781 -71.191406 27 -69.890625 C 24.195312 -68.585938 22.144531 -66.640625 20.84375 -64.046875 C 22.144531 -62.640625 22.796875 -60.738281 22.796875 -58.34375 C 22.796875 -56.84375 22.242188 -55.414062 21.140625 -54.0625 C 20.046875 -52.71875 18.445312 -52.046875 16.34375 -52.046875 C 14.25 -52.046875 12.597656 -52.71875 11.390625 -54.0625 C 10.191406 -55.414062 9.59375 -57.191406 9.59375 -59.390625 C 9.59375 -62.691406 10.867188 -65.71875 13.421875 -68.46875 C 15.972656 -71.21875 19.519531 -73.390625 24.0625 -74.984375 C 28.613281 -76.585938 33.691406 -77.390625 39.296875 -77.390625 C 47.691406 -77.390625 53.890625 -75.164062 57.890625 -70.71875 C 61.890625 -66.269531 63.84375 -59.242188 63.75 -49.640625 L 63.59375 -15.890625 C 63.59375 -12.691406 63.394531 -9.296875 63 -5.703125 L 73.640625 -6.296875 L 73.640625 0 L 52.1875 0 C 51.894531 -1.5 51.546875 -4.347656 51.140625 -8.546875 C 43.847656 -1.242188 36 2.40625 27.59375 2.40625 Z M 31.046875 -6.15625 C 34.847656 -6.15625 38.296875 -6.878906 41.390625 -8.328125 C 44.492188 -9.773438 47.644531 -12 50.84375 -15 C 50.738281 -16.5 50.6875 -19.046875 50.6875 -22.640625 L 50.84375 -36.75 C 42.644531 -36.445312 35.34375 -34.769531 28.9375 -31.71875 C 22.539062 -28.664062 19.34375 -23.992188 19.34375 -17.703125 C 19.34375 -14.003906 20.441406 -11.15625 22.640625 -9.15625 C 24.847656 -7.15625 27.648438 -6.15625 31.046875 -6.15625 Z M 31.046875 -6.15625 "/></g></g></g><g fill="#10202d" fill-opacity="1"><g transform="translate(802.942518, 204.374983)"><g><path d="M 18.296875 2.40625 C 15.898438 2.40625 13.847656 1.476562 12.140625 -0.375 C 10.441406 -2.226562 9.59375 -4.503906 9.59375 -7.203125 C 9.59375 -9.898438 10.46875 -12.195312 12.21875 -14.09375 C 13.96875 -16 16.046875 -16.953125 18.453125 -16.953125 C 20.953125 -16.953125 23.023438 -16 24.671875 -14.09375 C 26.316406 -12.195312 27.140625 -9.898438 27.140625 -7.203125 C 27.140625 -4.503906 26.265625 -2.226562 24.515625 -0.375 C 22.765625 1.476562 20.691406 2.40625 18.296875 2.40625 Z M 18.296875 2.40625 "/></g></g></g><g fill="#119a67" fill-opacity="1"><g transform="translate(839.832435, 204.374983)"><g><path d="M 37.34375 2.40625 C 32.644531 2.40625 28.34375 1.78125 24.4375 0.53125 C 20.539062 -0.71875 17.195312 -2.296875 14.40625 -4.203125 L 15 1.046875 L 8.703125 1.046875 L 7.796875 -24.75 L 12.453125 -24.75 C 12.648438 -20.644531 13.769531 -16.992188 15.8125 -13.796875 C 17.863281 -10.597656 20.566406 -8.070312 23.921875 -6.21875 C 27.273438 -4.375 30.847656 -3.453125 34.640625 -3.453125 C 38.941406 -3.453125 42.765625 -4.472656 46.109375 -6.515625 C 49.460938 -8.566406 51.140625 -11.492188 51.140625 -15.296875 C 51.140625 -18.097656 50.3125 -20.445312 48.65625 -22.34375 C 47.007812 -24.25 44.960938 -25.828125 42.515625 -27.078125 C 40.066406 -28.328125 36.644531 -29.800781 32.25 -31.5 C 26.945312 -33.5 22.695312 -35.375 19.5 -37.125 C 16.300781 -38.875 13.550781 -41.25 11.25 -44.25 C 8.945312 -47.25 7.796875 -51.046875 7.796875 -55.640625 C 7.796875 -58.941406 8.59375 -62.242188 10.1875 -65.546875 C 11.789062 -68.847656 14.492188 -71.644531 18.296875 -73.9375 C 22.097656 -76.238281 27.148438 -77.390625 33.453125 -77.390625 C 36.546875 -77.390625 39.71875 -76.890625 42.96875 -75.890625 C 46.21875 -74.890625 49.242188 -73.238281 52.046875 -70.9375 L 51.75 -76.640625 L 58.046875 -76.640625 L 58.046875 -50.390625 L 53.25 -50.390625 C 52.945312 -56.191406 51.171875 -61.21875 47.921875 -65.46875 C 44.671875 -69.71875 40.097656 -71.84375 34.203125 -71.84375 C 29.703125 -71.84375 26.125 -70.71875 23.46875 -68.46875 C 20.820312 -66.21875 19.5 -63.539062 19.5 -60.4375 C 19.5 -57.539062 20.375 -55.09375 22.125 -53.09375 C 23.875 -51.09375 26.046875 -49.390625 28.640625 -47.984375 C 31.242188 -46.585938 34.742188 -45.039062 39.140625 -43.34375 C 44.335938 -41.25 48.535156 -39.300781 51.734375 -37.5 C 54.941406 -35.695312 57.671875 -33.320312 59.921875 -30.375 C 62.171875 -27.425781 63.296875 -23.847656 63.296875 -19.640625 C 63.296875 -14.847656 62.066406 -10.800781 59.609375 -7.5 C 57.160156 -4.195312 53.960938 -1.71875 50.015625 -0.0625 C 46.066406 1.582031 41.84375 2.40625 37.34375 2.40625 Z M 37.34375 2.40625 "/></g></g></g><g fill="#119a67" fill-opacity="1"><g transform="translate(909.271597, 204.374983)"><g><path d="M 5.25 -4.5 C 8.144531 -4.5 10.21875 -5.222656 11.46875 -6.671875 C 12.71875 -8.117188 13.441406 -9.941406 13.640625 -12.140625 C 13.847656 -14.347656 13.953125 -17.898438 13.953125 -22.796875 C 13.953125 -23.796875 13.972656 -29.242188 14.015625 -39.140625 C 14.066406 -49.046875 14.09375 -67.242188 14.09375 -93.734375 C 14.09375 -97.535156 14.242188 -100.785156 14.546875 -103.484375 L 3.90625 -102.890625 L 3.90625 -109.1875 C 9.800781 -109.1875 14.019531 -109.535156 16.5625 -110.234375 C 19.113281 -110.929688 21.09375 -111.929688 22.5 -113.234375 L 26.84375 -113.234375 L 26.84375 -42.296875 L 32.84375 -42.296875 L 51.140625 -61.5 C 54.941406 -65.5 57.894531 -68.144531 60 -69.4375 L 49.796875 -69 L 49.796875 -74.984375 L 77.09375 -74.984375 L 77.09375 -70.5 C 72.695312 -70 68.695312 -68.394531 65.09375 -65.6875 C 61.488281 -62.988281 57.488281 -59.34375 53.09375 -54.75 L 41.390625 -42.453125 C 43.191406 -41.648438 44.765625 -40.625 46.109375 -39.375 C 47.460938 -38.125 48.988281 -36.445312 50.6875 -34.34375 L 61.34375 -20.703125 C 61.539062 -20.492188 62.664062 -18.960938 64.71875 -16.109375 C 66.769531 -13.265625 69.21875 -10.617188 72.0625 -8.171875 C 74.914062 -5.722656 77.390625 -4.5 79.484375 -4.5 L 79.484375 0 L 65.84375 0 C 63.445312 0 61.195312 -1.046875 59.09375 -3.140625 C 56.988281 -5.242188 53.9375 -8.894531 49.9375 -14.09375 L 44.09375 -22.34375 C 41.894531 -25.445312 39.820312 -28.320312 37.875 -30.96875 C 35.925781 -33.625 34.300781 -35.550781 33 -36.75 L 26.84375 -36.453125 L 26.84375 -15.890625 C 26.84375 -11.398438 26.644531 -8.003906 26.25 -5.703125 L 35.84375 -6.15625 L 35.84375 0 L 5.25 0 Z M 5.25 -4.5 "/></g></g></g><g clip-path="url(#83008a356b)"><g clip-path="url(#5331778acd)"><g clip-path="url(#df450f9575)"><g transform="matrix(1, 0, 0, 1, 176, 124)"><g clip-path="url(#49e9a236b5)"><g clip-path="url(#6e10712774)"><g clip-path="url(#1800bb2656)"><g clip-path="url(#2f2bf052b9)"><path fill="#119a67" d="M 23.882812 -8.519531 L 73.253906 9.335938 L 42.640625 94 L -6.730469 76.144531 Z M 23.882812 -8.519531 " fill-opacity="1" fill-rule="nonzero"/></g></g></g></g></g></g></g></g><g clip-path="url(#d79ef4c853)"><g clip-path="url(#f3829184e2)"><g clip-path="url(#d757311ed4)"><g transform="matrix(1, 0, 0, 1, 158, 126)"><g clip-path="url(#55165c93ad)"><g clip-path="url(#f91427f1f3)"><g clip-path="url(#93edd7dba7)"><g clip-path="url(#75f3e515be)"><path fill="#10202d" d="M -17.90625 11.203125 L 29.589844 -11.167969 L 67.953125 70.277344 L 20.457031 92.648438 Z M -17.90625 11.203125 " fill-opacity="1" fill-rule="nonzero"/></g></g></g></g></g></g></g></g></svg>