<svg xmlns="http://www.w3.org/2000/svg" width="1200" height="800" viewBox="0 0 1200 800" fill="none">
  <defs>
    <linearGradient id="bg" x1="0" y1="0" x2="1200" y2="800" gradientUnits="userSpaceOnUse">
      <stop offset="0" stop-color="#f7f1f7"/>
      <stop offset="1" stop-color="#fdfafd"/>
    </linearGradient>
    <filter id="shadow" x="-20%" y="-20%" width="140%" height="140%">
      <feDropShadow dx="0" dy="18" stdDeviation="22" flood-color="#000000" flood-opacity="0.12"/>
    </filter>
  </defs>
  <rect width="1200" height="800" fill="url(#bg)"/>
  <ellipse cx="600" cy="690" rx="340" ry="58" fill="#f0e6f0"/>
  <circle cx="182" cy="150" r="88" fill="#e6d6e6" opacity="0.55"/>
  <circle cx="1030" cy="132" r="64" fill="#e6d6e6" opacity="0.45"/>
  <path d="M65 565c86-116 198-165 336-146 99 14 171 55 253 46 83-9 125-72 222-86 89-13 181 17 259 98v174H65V565z" fill="#ffffff" opacity="0.55"/>
  <g filter="url(#shadow)">
    <rect x="541" y="177" width="98" height="44" rx="16" fill="#ede9e2"/>
    <rect x="444" y="226" width="286" height="350" rx="54" fill="#fbfaf8" stroke="#d9d2c8" stroke-width="3"/>
    <rect x="484" y="310" width="206" height="148" rx="30" fill="#e6d6e6" stroke="#b99bb9" stroke-opacity="0.4" stroke-width="3"/>
  </g>
  <g transform="rotate(18 332 560)" filter="url(#shadow)">
    <ellipse cx="332" cy="560" rx="66" ry="28" fill="#fbfaf8" stroke="#d7d1c8" stroke-width="3"/>
    <rect x="382" y="550" width="118" height="20" rx="10" fill="#b99bb9"/>
    <ellipse cx="332" cy="554" rx="50" ry="16" fill="#e6d6e6"/>
  </g>
  <g filter="url(#shadow)">
    <path d="M820 470 C860 410, 940 415, 952 486 C898 502, 840 486, 820 470 Z" fill="#a9c0a8" opacity="0.72"/>
    <path d="M836 478 C876 462, 912 464, 936 480" stroke="#ffffff" stroke-opacity="0.65" stroke-width="3" stroke-linecap="round"/>
  </g>
</svg>