<svg xmlns="http://www.w3.org/2000/svg" width="1200" height="800" viewBox="0 0 1200 800" fill="none">
  <defs>
    <linearGradient id="bg" x1="0" y1="0" x2="1200" y2="800" gradientUnits="userSpaceOnUse">
      <stop offset="0" stop-color="#f5f3ee"/>
      <stop offset="1" stop-color="#fcfbf8"/>
    </linearGradient>
    <filter id="shadow" x="-20%" y="-20%" width="140%" height="140%">
      <feDropShadow dx="0" dy="18" stdDeviation="22" flood-color="#000000" flood-opacity="0.12"/>
    </filter>
  </defs>
  <rect width="1200" height="800" fill="url(#bg)"/>
  <ellipse cx="600" cy="690" rx="340" ry="58" fill="#eee7dc"/>
  <circle cx="182" cy="150" r="88" fill="#dfd2c0" opacity="0.55"/>
  <circle cx="1030" cy="132" r="64" fill="#dfd2c0" opacity="0.45"/>
  <path d="M65 565c86-116 198-165 336-146 99 14 171 55 253 46 83-9 125-72 222-86 89-13 181 17 259 98v174H65V565z" fill="#ffffff" opacity="0.55"/>
  <g filter="url(#shadow)">
    <rect x="366" y="184" width="120" height="46" rx="18" fill="#ede9e2"/>
    <rect x="312" y="230" width="228" height="322" rx="54" fill="#fbfaf8" stroke="#d9d2c8" stroke-width="3"/>
    <rect x="344" y="306" width="164" height="130" rx="28" fill="#dfd2c0" stroke="#b8a78f" stroke-opacity="0.4" stroke-width="3"/>
  </g>
  <g filter="url(#shadow)">
    <rect x="706" y="166" width="122" height="48" rx="18" fill="#ede9e2"/>
    <rect x="634" y="214" width="252" height="338" rx="54" fill="#fbfaf8" stroke="#d9d2c8" stroke-width="3"/>
    <rect x="669" y="295" width="182" height="138" rx="28" fill="#b8a78f" opacity="0.18" stroke="#dfd2c0" stroke-opacity="0.5" stroke-width="3"/>
  </g>
  <g transform="rotate(-24 592 590)" filter="url(#shadow)">
    <rect x="526" y="566" width="132" height="48" rx="24" fill="#fbfaf8" stroke="#d7d1c8" stroke-width="2.5"/>
    <path d="M592 566 H658 A24 24 0 0 1 658 614 H592 Z" fill="#b8a78f" opacity="0.88"/>
  </g>
</svg>