<svg xmlns="http://www.w3.org/2000/svg" width="1200" height="800" viewBox="0 0 1200 800" fill="none">
  <defs>
    <linearGradient id="bg" x1="0" y1="0" x2="1200" y2="800" gradientUnits="userSpaceOnUse">
      <stop offset="0" stop-color="#eff5f2"/>
      <stop offset="1" stop-color="#fbfdfc"/>
    </linearGradient>
    <filter id="shadow" x="-20%" y="-20%" width="140%" height="140%">
      <feDropShadow dx="0" dy="18" stdDeviation="22" flood-color="#000000" flood-opacity="0.12"/>
    </filter>
  </defs>
  <rect width="1200" height="800" fill="url(#bg)"/>
  <ellipse cx="600" cy="690" rx="340" ry="58" fill="#e4efe9"/>
  <circle cx="182" cy="150" r="88" fill="#d2e2da" opacity="0.55"/>
  <circle cx="1030" cy="132" r="64" fill="#d2e2da" opacity="0.45"/>
  <path d="M65 565c86-116 198-165 336-146 99 14 171 55 253 46 83-9 125-72 222-86 89-13 181 17 259 98v174H65V565z" fill="#ffffff" opacity="0.55"/>
  <g filter="url(#shadow)">
    <rect x="539" y="176" width="92" height="44" rx="16" fill="#ede9e2"/>
    <rect x="444" y="220" width="276" height="354" rx="54" fill="#fbfaf8" stroke="#d9d2c8" stroke-width="3"/>
    <rect x="484" y="304" width="200" height="148" rx="28" fill="#d2e2da" stroke="#9cb8ab" stroke-opacity="0.4" stroke-width="3"/>
  </g>
  <g filter="url(#shadow)">
    <path d="M284 470 C324 410, 404 415, 416 486 C362 502, 304 486, 284 470 Z" fill="#91b687" opacity="0.72"/>
    <path d="M300 478 C340 462, 376 464, 400 480" stroke="#ffffff" stroke-opacity="0.65" stroke-width="3" stroke-linecap="round"/>
    <path d="M794 484 C834 424, 914 429, 926 500 C872 516, 814 500, 794 484 Z" fill="#9abf90" opacity="0.72"/>
    <path d="M810 492 C850 476, 886 478, 910 494" stroke="#ffffff" stroke-opacity="0.65" stroke-width="3" stroke-linecap="round"/>
  </g>
  <g filter="url(#shadow)">
    <circle cx="858" cy="556" r="50" fill="#fff9f1" stroke="#d9c07b" stroke-width="8"/>
    <circle cx="858" cy="556" r="36" fill="#fff3de"/>
  </g>
</svg>