<svg xmlns="http://www.w3.org/2000/svg" viewBox="0 0 1600 900" role="img" aria-labelledby="title desc">
  <title id="title">Interesa article placeholder</title>
  <desc id="desc">Minimalistický placeholder pre článkové ilustračné obrázky.</desc>
  <defs>
    <linearGradient id="bg" x1="0" y1="0" x2="1" y2="1">
      <stop offset="0%" stop-color="#eef8f3" />
      <stop offset="100%" stop-color="#dcefe6" />
    </linearGradient>
  </defs>
  <rect width="1600" height="900" fill="url(#bg)" rx="36" />
  <rect x="210" y="180" width="1180" height="540" rx="34" fill="#f9fcfb" stroke="#d8ece2" stroke-width="8" />
  <circle cx="480" cy="450" r="120" fill="#cae6d8" />
  <path d="M438 438c27-57 78-95 145-105-12 69-49 122-114 162-27-8-39-27-31-57z" fill="#5ca07b" />
  <rect x="690" y="328" width="430" height="34" rx="17" fill="#90c5a8" />
  <rect x="690" y="392" width="360" height="24" rx="12" fill="#b7d9c7" />
  <rect x="690" y="442" width="392" height="24" rx="12" fill="#b7d9c7" />
  <rect x="690" y="492" width="310" height="24" rx="12" fill="#b7d9c7" />
  <rect x="690" y="562" width="180" height="56" rx="28" fill="#0f766e" />
</svg>