<svg xmlns="http://www.w3.org/2000/svg" width="1200" height="800" viewBox="0 0 1200 800" fill="none">
  <defs>
    <linearGradient id="bg" x1="0" y1="0" x2="1200" y2="800" gradientUnits="userSpaceOnUse">
      <stop offset="0" stop-color="#f6f2ee"/>
      <stop offset="1" stop-color="#fffaf6"/>
    </linearGradient>
    <filter id="shadow" x="-20%" y="-20%" width="140%" height="140%">
      <feDropShadow dx="0" dy="18" stdDeviation="22" flood-color="#000000" flood-opacity="0.12"/>
    </filter>
  </defs>
  <rect width="1200" height="800" fill="url(#bg)"/>
  <ellipse cx="600" cy="690" rx="340" ry="58" fill="#f4e5d5"/>
  <circle cx="182" cy="150" r="88" fill="#f1d3b8" opacity="0.55"/>
  <circle cx="1030" cy="132" r="64" fill="#f1d3b8" opacity="0.45"/>
  <path d="M65 565c86-116 198-165 336-146 99 14 171 55 253 46 83-9 125-72 222-86 89-13 181 17 259 98v174H65V565z" fill="#ffffff" opacity="0.55"/>
  <g filter="url(#shadow)">
    <rect x="504" y="171" width="128" height="48" rx="18" fill="#ede9e2"/>
    <rect x="460" y="220" width="258" height="348" rx="54" fill="#fbfaf8" stroke="#d9d2c8" stroke-width="3"/>
    <rect x="496" y="304" width="186" height="146" rx="28" fill="#f1d3b8" stroke="#d8b89a" stroke-opacity="0.4" stroke-width="3"/>
  </g>
  <g filter="url(#shadow)">
    <circle cx="336" cy="548" r="68" fill="#fff9f1" stroke="#f2b15f" stroke-width="8"/>
    <circle cx="336" cy="548" r="50" fill="#fff3de"/>
    <circle cx="848" cy="546" r="56" fill="#fff9f1" stroke="#f2b15f" stroke-width="8"/>
    <circle cx="848" cy="546" r="41" fill="#fff3de"/>
  </g>
  <g filter="url(#shadow)">
    <path d="M268 470 C308 410, 388 415, 400 486 C346 502, 288 486, 268 470 Z" fill="#99b588" opacity="0.72"/>
    <path d="M284 478 C324 462, 360 464, 384 480" stroke="#ffffff" stroke-opacity="0.65" stroke-width="3" stroke-linecap="round"/>
  </g>
</svg>