<svg xmlns="http://www.w3.org/2000/svg" viewBox="0 0 1200 1200" role="img" aria-labelledby="title desc">
  <title id="title">Interesa product placeholder</title>
  <desc id="desc">Minimalistický placeholder pre produktový obrázok.</desc>
  <defs>
    <linearGradient id="bg" x1="0" y1="0" x2="1" y2="1">
      <stop offset="0%" stop-color="#edf8f3" />
      <stop offset="100%" stop-color="#d9eee4" />
    </linearGradient>
  </defs>
  <rect width="1200" height="1200" fill="url(#bg)" rx="56" />
  <rect x="390" y="216" width="420" height="700" rx="110" fill="#f8fcfa" stroke="#d8ece2" stroke-width="10" />
  <rect x="460" y="164" width="280" height="100" rx="40" fill="#f8fcfa" stroke="#d8ece2" stroke-width="10" />
  <rect x="470" y="430" width="260" height="40" rx="20" fill="#93c5aa" />
  <rect x="470" y="500" width="220" height="26" rx="13" fill="#b7d9c7" />
  <rect x="470" y="548" width="190" height="26" rx="13" fill="#b7d9c7" />
  <circle cx="600" cy="792" r="98" fill="#cfe7db" />
  <path d="M554 786c22-52 58-83 108-92-12 49-39 86-82 111-23-2-32-10-26-19z" fill="#5ca07b" />
  <path d="M600 860c-50-12-86-45-107-98 49-3 90 14 126 50-1 26-8 42-19 48z" fill="#79b997" />
</svg>